<svg xmlns="http://www.w3.org/2000/svg" width="1200" height="630" viewBox="0 0 1200 630">
      <rect width="1200" height="630" fill="#0b0d0f"/>
      <g stroke="#1a2026" stroke-width="1" opacity="0.5">
        <line x1="0" y1="0" x2="1200" y2="0"/><line x1="0" y1="40" x2="1200" y2="40"/><line x1="0" y1="80" x2="1200" y2="80"/><line x1="0" y1="120" x2="1200" y2="120"/><line x1="0" y1="160" x2="1200" y2="160"/><line x1="0" y1="200" x2="1200" y2="200"/><line x1="0" y1="240" x2="1200" y2="240"/><line x1="0" y1="280" x2="1200" y2="280"/><line x1="0" y1="320" x2="1200" y2="320"/><line x1="0" y1="360" x2="1200" y2="360"/><line x1="0" y1="400" x2="1200" y2="400"/><line x1="0" y1="440" x2="1200" y2="440"/><line x1="0" y1="480" x2="1200" y2="480"/><line x1="0" y1="520" x2="1200" y2="520"/><line x1="0" y1="560" x2="1200" y2="560"/><line x1="0" y1="600" x2="1200" y2="600"/>
        <line x1="0" y1="0" x2="0" y2="630"/><line x1="40" y1="0" x2="40" y2="630"/><line x1="80" y1="0" x2="80" y2="630"/><line x1="120" y1="0" x2="120" y2="630"/><line x1="160" y1="0" x2="160" y2="630"/><line x1="200" y1="0" x2="200" y2="630"/><line x1="240" y1="0" x2="240" y2="630"/><line x1="280" y1="0" x2="280" y2="630"/><line x1="320" y1="0" x2="320" y2="630"/><line x1="360" y1="0" x2="360" y2="630"/><line x1="400" y1="0" x2="400" y2="630"/><line x1="440" y1="0" x2="440" y2="630"/><line x1="480" y1="0" x2="480" y2="630"/><line x1="520" y1="0" x2="520" y2="630"/><line x1="560" y1="0" x2="560" y2="630"/><line x1="600" y1="0" x2="600" y2="630"/><line x1="640" y1="0" x2="640" y2="630"/><line x1="680" y1="0" x2="680" y2="630"/><line x1="720" y1="0" x2="720" y2="630"/><line x1="760" y1="0" x2="760" y2="630"/><line x1="800" y1="0" x2="800" y2="630"/><line x1="840" y1="0" x2="840" y2="630"/><line x1="880" y1="0" x2="880" y2="630"/><line x1="920" y1="0" x2="920" y2="630"/><line x1="960" y1="0" x2="960" y2="630"/><line x1="1000" y1="0" x2="1000" y2="630"/><line x1="1040" y1="0" x2="1040" y2="630"/><line x1="1080" y1="0" x2="1080" y2="630"/><line x1="1120" y1="0" x2="1120" y2="630"/><line x1="1160" y1="0" x2="1160" y2="630"/>
      </g>
      <text x="56" y="80" font-family="JetBrains Mono, monospace" font-size="13" fill="#84909b" letter-spacing="2.86" font-weight="600">// TRENDINGREPO · BRAND · 2025</text>
      <g transform="translate(1080 70)">
        <circle cx="-12" cy="0" r="3.5" fill="#22c55e"/>
        <text x="0" y="4" font-family="JetBrains Mono, monospace" font-size="13" fill="#22c55e" letter-spacing="2.86" font-weight="600">LIVE</text>
      </g>
      <g transform="translate(56 240)">
        <g transform="scale(0.42)"><path d="M137.214 61.225 L161.762 123.424 L301.652 88.012 L180.75 172.89 L195.993 242.126 L137.214 199.421 L78.436 242.126 L100.887 173.028 L42.109 130.323 L114.763 130.323 Z" fill="#F56E0F"/></g>
      </g>
      <text x="200" y="320" font-family="Geist, sans-serif" font-weight="700" font-size="92" fill="#ffffff" letter-spacing="-2.76">trending<tspan fill="#F56E0F">repo</tspan></text>
      <text x="56" y="540" font-family="JetBrains Mono, monospace" font-size="18" fill="#b8c0c8" letter-spacing="-0.09">// the live leaderboard of repos developers are starring right now.</text>
      <text x="56" y="568" font-family="JetBrains Mono, monospace" font-size="18" fill="#b8c0c8" letter-spacing="-0.09">   one signal, every minute.</text>
      <text x="1144" y="582" font-family="JetBrains Mono, monospace" font-size="14" fill="#F56E0F" letter-spacing="3.08" font-weight="600" text-anchor="end">TRENDINGREPO.COM</text>
    </svg>